<svg width="138" height="40" viewBox="0 0 138 40" fill="none" xmlns="http://www.w3.org/2000/svg">
<path d="M132.889 0.801252C135.255 0.801252 137.181 2.685 137.181 5V35C137.181 37.315 135.255 39.1988 132.889 39.1988H5.11111C2.74467 39.1988 0.819055 37.315 0.819055 35V5C0.819055 2.685 2.74467 0.801252 5.11111 0.801252H132.889ZM132.889 3.8147e-06H5.11111C2.30128 3.8147e-06 0 2.25125 0 5V35C0 37.7488 2.30128 40 5.11111 40H132.889C135.699 40 138 37.7488 138 35V5C138 2.25125 135.699 3.8147e-06 132.889 3.8147e-06Z" fill="#A6A6A6"/>
<path d="M30.7975 19.7838C30.7679 16.5608 33.4952 14.9928 33.6199 14.9198C32.0753 12.7168 29.6812 12.4158 28.84 12.3918C26.8292 12.1848 24.8788 13.5688 23.8546 13.5688C22.8099 13.5688 21.2326 12.4118 19.5326 12.4458C17.3451 12.4788 15.2986 13.7178 14.1762 15.6418C11.8598 19.5648 13.5874 25.3298 15.8066 28.5008C16.9168 30.0538 18.214 31.7878 19.9119 31.7268C21.573 31.6598 22.1935 30.6908 24.198 30.6908C26.1842 30.6908 26.7669 31.7268 28.4985 31.6878C30.2813 31.6598 31.4037 30.1278 32.475 28.5608C33.7579 26.7808 34.2731 25.0278 34.2935 24.9378C34.2516 24.9238 30.8312 23.6468 30.7975 19.7838Z" fill="white"/>
<path d="M27.5264 10.3058C28.4198 9.2128 29.0311 7.7258 28.8614 6.2168C27.5683 6.2728 25.9512 7.0918 25.0199 8.1608C24.196 9.1028 23.46 10.6468 23.6501 12.0988C25.1027 12.2048 26.5941 11.3818 27.5264 10.3058Z" fill="white"/>
<path d="M50.1399 10.0089C50.1399 11.1859 49.7791 12.0719 49.0584 12.6669C48.3909 13.2159 47.4423 13.4909 46.2136 13.4909C45.6043 13.4909 45.083 13.4649 44.6465 13.4129V6.98195C45.2159 6.89195 45.8292 6.84595 46.4916 6.84595C47.662 6.84595 48.5442 7.09495 49.1392 7.59295C49.8056 8.15595 50.1399 8.96095 50.1399 10.0089ZM49.0104 10.0379C49.0104 9.27495 48.8039 8.68995 48.3909 8.28195C47.9779 7.87495 47.3748 7.67095 46.5805 7.67095C46.2432 7.67095 45.956 7.69295 45.7178 7.73895V12.6279C45.8496 12.6479 46.0909 12.6569 46.4415 12.6569C47.2613 12.6569 47.8941 12.4339 48.3398 11.9879C48.7855 11.5419 49.0104 10.8919 49.0104 10.0379Z" fill="white"/>
<path d="M56.1288 11.037C56.1288 11.762 55.9172 12.356 55.494 12.822C55.0503 13.301 54.4626 13.54 53.7286 13.54C53.0212 13.54 52.458 13.311 52.0378 12.851C51.6187 12.392 51.4092 11.813 51.4092 11.115C51.4092 10.385 51.6249 9.78605 52.0583 9.32105C52.4917 8.85605 53.0744 8.62305 53.8083 8.62305C54.5157 8.62305 55.0841 8.85205 55.5144 9.31105C55.9233 9.75705 56.1288 10.333 56.1288 11.037ZM55.0176 11.071C55.0176 10.636 54.9215 10.263 54.7304 9.95205C54.5055 9.57605 54.1855 9.38805 53.7695 9.38805C53.3391 9.38805 53.012 9.57605 52.7871 9.95205C52.595 10.263 52.4999 10.642 52.4999 11.09C52.4999 11.525 52.596 11.898 52.7871 12.209C53.0192 12.585 53.3422 12.773 53.7593 12.773C54.1682 12.773 54.4891 12.582 54.7202 12.199C54.9185 11.882 55.0176 11.506 55.0176 11.071Z" fill="white"/>
<path d="M64.1595 8.71899L62.6517 13.433H61.6704L61.0458 11.386C60.8874 10.875 60.7586 10.367 60.6584 9.86299H60.639C60.546 10.381 60.4172 10.888 60.2516 11.386L59.5881 13.433H58.5956L57.1777 8.71899H58.2787L58.8235 10.96C58.9554 11.49 59.0637 11.995 59.1506 12.473H59.17C59.2498 12.079 59.3816 11.577 59.5677 10.97L60.2516 8.71999H61.1245L61.7798 10.922C61.9382 11.459 62.067 11.976 62.1662 12.474H62.1958C62.2684 11.989 62.3778 11.472 62.5229 10.922L63.1076 8.71999H64.1595V8.71899Z" fill="white"/>
<path d="M69.714 13.4331H68.6428V10.7331C68.6428 9.90112 68.3197 9.48512 67.6716 9.48512C67.3537 9.48512 67.0972 9.59912 66.8978 9.82812C66.7005 10.0571 66.6004 10.3271 66.6004 10.6361V13.4321H65.5291V10.0661C65.5291 9.65212 65.5158 9.20312 65.4902 8.71712H66.4317L66.4818 9.45412H66.5114C66.6361 9.22512 66.8222 9.03612 67.0665 8.88512C67.3568 8.70912 67.6819 8.62012 68.0376 8.62012C68.4874 8.62012 68.8615 8.76212 69.159 9.04712C69.529 9.39612 69.714 9.91712 69.714 10.6091V13.4331V13.4331Z" fill="white"/>
<path d="M72.6679 13.4329H71.5977V6.55591H72.6679V13.4329Z" fill="white"/>
<path d="M78.9755 11.037C78.9755 11.762 78.7639 12.356 78.3407 12.822C77.897 13.301 77.3082 13.54 76.5753 13.54C75.8669 13.54 75.3036 13.311 74.8845 12.851C74.4654 12.392 74.2559 11.813 74.2559 11.115C74.2559 10.385 74.4716 9.78605 74.905 9.32105C75.3384 8.85605 75.9211 8.62305 76.654 8.62305C77.3624 8.62305 77.9297 8.85205 78.3611 9.31105C78.77 9.75705 78.9755 10.333 78.9755 11.037ZM77.8633 11.071C77.8633 10.636 77.7672 10.263 77.576 9.95205C77.3522 9.57605 77.0312 9.38805 76.6162 9.38805C76.1848 9.38805 75.8577 9.57605 75.6338 9.95205C75.4416 10.263 75.3466 10.642 75.3466 11.09C75.3466 11.525 75.4427 11.898 75.6338 12.209C75.8659 12.585 76.1889 12.773 76.6059 12.773C77.0148 12.773 77.3348 12.582 77.5658 12.199C77.7651 11.882 77.8633 11.506 77.8633 11.071Z" fill="white"/>
<path d="M84.1591 13.433H83.1972L83.1175 12.89H83.0878C82.7587 13.323 82.2895 13.54 81.6802 13.54C81.2253 13.54 80.8573 13.397 80.5803 13.113C80.3289 12.855 80.2031 12.534 80.2031 12.153C80.2031 11.577 80.4485 11.138 80.9422 10.834C81.4349 10.53 82.128 10.381 83.0204 10.388V10.3C83.0204 9.67905 82.6871 9.36905 82.0196 9.36905C81.5443 9.36905 81.1252 9.48605 80.7633 9.71805L80.5456 9.03005C80.9933 8.75905 81.5463 8.62305 82.1985 8.62305C83.4579 8.62305 84.0896 9.27305 84.0896 10.573V12.309C84.0896 12.78 84.1131 13.155 84.1591 13.433ZM83.0469 11.813V11.086C81.8653 11.066 81.2744 11.383 81.2744 12.036C81.2744 12.282 81.3419 12.466 81.4799 12.589C81.6179 12.712 81.7937 12.773 82.0033 12.773C82.2384 12.773 82.4581 12.7 82.6585 12.555C82.8599 12.409 82.9836 12.224 83.0296 11.997C83.0408 11.946 83.0469 11.884 83.0469 11.813Z" fill="white"/>
<path d="M90.2465 13.4329H89.2958L89.2457 12.6759H89.2161C88.9125 13.2519 88.3952 13.5399 87.6684 13.5399C87.0878 13.5399 86.6043 13.3169 86.221 12.8709C85.8376 12.4249 85.6465 11.8459 85.6465 11.1349C85.6465 10.3719 85.854 9.75391 86.2711 9.28191C86.6748 8.84191 87.1696 8.62191 87.7584 8.62191C88.4055 8.62191 88.8583 8.83491 89.1159 9.26191H89.1363V6.55591H90.2087V12.1629C90.2087 12.6219 90.2209 13.0449 90.2465 13.4329ZM89.1363 11.4449V10.6589C89.1363 10.5229 89.1261 10.4129 89.1067 10.3289C89.0464 10.0769 88.9166 9.86491 88.7193 9.69391C88.5199 9.52291 88.2797 9.43691 88.0027 9.43691C87.603 9.43691 87.2902 9.59191 87.0602 9.90291C86.8323 10.2139 86.7167 10.6109 86.7167 11.0959C86.7167 11.5619 86.8261 11.9399 87.0459 12.2309C87.2779 12.5409 87.5907 12.6959 87.9823 12.6959C88.3339 12.6959 88.615 12.5669 88.8287 12.3079C89.0351 12.0689 89.1363 11.7809 89.1363 11.4449Z" fill="white"/>
<path d="M99.4081 11.037C99.4081 11.762 99.1965 12.356 98.7733 12.822C98.3296 13.301 97.7429 13.54 97.0079 13.54C96.3016 13.54 95.7383 13.311 95.3171 12.851C94.898 12.392 94.6885 11.813 94.6885 11.115C94.6885 10.385 94.9042 9.78605 95.3376 9.32105C95.771 8.85605 96.3537 8.62305 97.0887 8.62305C97.795 8.62305 98.3644 8.85205 98.7937 9.31105C99.2026 9.75705 99.4081 10.333 99.4081 11.037ZM98.298 11.071C98.298 10.636 98.2019 10.263 98.0107 9.95205C97.7848 9.57605 97.4659 9.38805 97.0488 9.38805C96.6195 9.38805 96.2923 9.57605 96.0664 9.95205C95.8743 10.263 95.7792 10.642 95.7792 11.09C95.7792 11.525 95.8753 11.898 96.0664 12.209C96.2985 12.585 96.6215 12.773 97.0386 12.773C97.4475 12.773 97.7695 12.582 98.0005 12.199C98.1978 11.882 98.298 11.506 98.298 11.071Z" fill="white"/>
<path d="M105.169 13.4331H104.099V10.7331C104.099 9.90112 103.776 9.48512 103.127 9.48512C102.809 9.48512 102.552 9.59912 102.354 9.82812C102.156 10.0571 102.056 10.3271 102.056 10.6361V13.4321H100.984V10.0661C100.984 9.65212 100.972 9.20312 100.946 8.71712H101.887L101.937 9.45412H101.966C102.092 9.22512 102.278 9.03612 102.522 8.88512C102.813 8.70912 103.137 8.62012 103.494 8.62012C103.942 8.62012 104.317 8.76212 104.614 9.04712C104.985 9.39612 105.169 9.91712 105.169 10.6091V13.4331V13.4331Z" fill="white"/>
<path d="M112.379 9.50392H111.199V11.7939C111.199 12.3759 111.409 12.6669 111.824 12.6669C112.016 12.6669 112.176 12.6509 112.301 12.6179L112.329 13.4129C112.117 13.4909 111.839 13.5299 111.497 13.5299C111.074 13.5299 110.745 13.4039 110.506 13.1519C110.267 12.8999 110.149 12.4759 110.149 11.8809V9.50392H109.444V8.71892H110.149V7.85492L111.198 7.54492V8.71792H112.378V9.50392H112.379Z" fill="white"/>
<path d="M118.05 13.4329H116.978V10.7529C116.978 9.90791 116.655 9.48491 116.008 9.48491C115.511 9.48491 115.172 9.72991 114.986 10.2199C114.954 10.3229 114.936 10.4489 114.936 10.5969V13.4319H113.865V6.55591H114.936V9.39691H114.956C115.293 8.87991 115.777 8.62191 116.403 8.62191C116.847 8.62191 117.214 8.76391 117.505 9.04891C117.868 9.40391 118.05 9.93191 118.05 10.6299V13.4329V13.4329Z" fill="white"/>
<path d="M123.9 10.853C123.9 11.041 123.886 11.199 123.86 11.328H120.648C120.662 11.794 120.815 12.149 121.113 12.395C121.385 12.615 121.735 12.725 122.165 12.725C122.64 12.725 123.073 12.651 123.464 12.502L123.631 13.23C123.175 13.424 122.637 13.521 122.014 13.521C121.268 13.521 120.68 13.306 120.255 12.876C119.828 12.446 119.616 11.869 119.616 11.145C119.616 10.434 119.813 9.84201 120.211 9.37001C120.626 8.86601 121.187 8.61401 121.896 8.61401C122.589 8.61401 123.115 8.86601 123.471 9.37001C123.758 9.77001 123.9 10.265 123.9 10.853ZM122.878 10.582C122.886 10.271 122.816 10.003 122.671 9.77701C122.485 9.48601 122.201 9.34001 121.818 9.34001C121.468 9.34001 121.183 9.48201 120.966 9.76701C120.788 9.99401 120.682 10.265 120.648 10.582H122.878Z" fill="white"/>
<path d="M54.8372 31.5038H52.5157L51.2441 27.5948H46.824L45.6127 31.5038H43.3525L47.7317 18.1958H50.4365L54.8372 31.5038ZM50.8608 25.9548L49.7108 22.4798C49.5891 22.1248 49.3612 21.2888 49.0248 19.9728H48.984C48.85 20.5388 48.6344 21.3748 48.3379 22.4798L47.2084 25.9548H50.8608V25.9548Z" fill="white"/>
<path d="M66.0997 26.5879C66.0997 28.2199 65.6489 29.5099 64.7473 30.4569C63.9397 31.2999 62.9369 31.7209 61.7399 31.7209C60.4478 31.7209 59.5196 31.2669 58.9543 30.3589H58.9135V35.4139H56.7341V25.0669C56.7341 24.0409 56.7065 22.9879 56.6533 21.9079H58.57L58.6916 23.4289H58.7325C59.4593 22.2829 60.5623 21.7109 62.0425 21.7109C63.1996 21.7109 64.1656 22.1579 64.9384 23.0529C65.7133 23.9489 66.0997 25.1269 66.0997 26.5879ZM63.8794 26.6659C63.8794 25.7319 63.6647 24.9619 63.2334 24.3559C62.7621 23.7239 62.1294 23.4079 61.3361 23.4079C60.7984 23.4079 60.3098 23.5839 59.8733 23.9309C59.4358 24.2809 59.1496 24.7379 59.0157 25.3039C58.9482 25.5679 58.9145 25.7839 58.9145 25.9539V27.5539C58.9145 28.2519 59.1332 28.8409 59.5707 29.3219C60.0083 29.8029 60.5766 30.0429 61.2758 30.0429C62.0967 30.0429 62.7355 29.7329 63.1925 29.1149C63.6504 28.4959 63.8794 27.6799 63.8794 26.6659Z" fill="white"/>
<path d="M77.3809 26.5879C77.3809 28.2199 76.9301 29.5099 76.0275 30.4569C75.2209 31.2999 74.2181 31.7209 73.0211 31.7209C71.729 31.7209 70.8008 31.2669 70.2366 30.3589H70.1957V35.4139H68.0163V25.0669C68.0163 24.0409 67.9887 22.9879 67.9355 21.9079H69.8522L69.9739 23.4289H70.0147C70.7405 22.2829 71.8435 21.7109 73.3247 21.7109C74.4808 21.7109 75.4468 22.1579 76.2217 23.0529C76.9935 23.9489 77.3809 25.1269 77.3809 26.5879ZM75.1606 26.6659C75.1606 25.7319 74.9449 24.9619 74.5135 24.3559C74.0423 23.7239 73.4116 23.4079 72.6173 23.4079C72.0786 23.4079 71.591 23.5839 71.1535 23.9309C70.716 24.2809 70.4308 24.7379 70.2969 25.3039C70.2304 25.5679 70.1957 25.7839 70.1957 25.9539V27.5539C70.1957 28.2519 70.4144 28.8409 70.8499 29.3219C71.2874 29.8019 71.8558 30.0429 72.557 30.0429C73.3779 30.0429 74.0168 29.7329 74.4737 29.1149C74.9316 28.4959 75.1606 27.6799 75.1606 26.6659Z" fill="white"/>
<path d="M89.9951 27.772C89.9951 28.904 89.5934 29.825 88.7869 30.536C87.9006 31.313 86.6668 31.701 85.0813 31.701C83.6175 31.701 82.444 31.425 81.5557 30.872L82.0606 29.095C83.0174 29.661 84.0673 29.945 85.2111 29.945C86.032 29.945 86.6709 29.763 87.1298 29.401C87.5868 29.039 87.8147 28.553 87.8147 27.947C87.8147 27.407 87.6266 26.952 87.2494 26.583C86.8743 26.214 86.2477 25.871 85.3726 25.554C82.9909 24.685 81.801 23.412 81.801 21.738C81.801 20.644 82.2181 19.747 83.0532 19.049C83.8853 18.35 84.9954 18.001 86.3836 18.001C87.6215 18.001 88.6499 18.212 89.4707 18.633L88.9259 20.371C88.1592 19.963 87.2924 19.759 86.3223 19.759C85.5556 19.759 84.9566 19.944 84.5273 20.312C84.1644 20.641 83.9824 21.042 83.9824 21.517C83.9824 22.043 84.1899 22.478 84.607 22.82C84.9699 23.136 85.6292 23.478 86.586 23.847C87.7565 24.308 88.6162 24.847 89.1692 25.465C89.7202 26.081 89.9951 26.852 89.9951 27.772Z" fill="white"/>
<path d="M97.2004 23.5078H94.7982V28.1668C94.7982 29.3518 95.2214 29.9438 96.0698 29.9438C96.4593 29.9438 96.7823 29.9108 97.0379 29.8448L97.0982 31.4638C96.6689 31.6208 96.1036 31.6998 95.4034 31.6998C94.5426 31.6998 93.87 31.4428 93.3845 30.9298C92.901 30.4158 92.6577 29.5538 92.6577 28.3428V23.5058H91.2266V21.9058H92.6577V20.1488L94.7982 19.5168V21.9058H97.2004V23.5078Z" fill="white"/>
<path d="M108.04 26.6269C108.04 28.1019 107.609 29.3129 106.748 30.2599C105.846 31.2349 104.648 31.7209 103.154 31.7209C101.715 31.7209 100.569 31.2539 99.7145 30.3199C98.8599 29.3859 98.4326 28.2069 98.4326 26.7859C98.4326 25.2989 98.8722 24.0809 99.7543 23.1339C100.634 22.1859 101.822 21.7119 103.316 21.7119C104.755 21.7119 105.913 22.1789 106.787 23.1139C107.623 24.0209 108.04 25.1919 108.04 26.6269ZM105.779 26.6959C105.779 25.8109 105.586 25.0519 105.195 24.4189C104.738 23.6529 104.084 23.2709 103.238 23.2709C102.362 23.2709 101.697 23.6539 101.24 24.4189C100.848 25.0529 100.655 25.8239 100.655 26.7359C100.655 27.6209 100.848 28.3799 101.24 29.0119C101.711 29.7779 102.369 30.1599 103.219 30.1599C104.051 30.1599 104.704 29.7699 105.175 28.9919C105.577 28.3469 105.779 27.5799 105.779 26.6959Z" fill="white"/>
<path d="M115.124 23.7829C114.908 23.7439 114.678 23.7239 114.437 23.7239C113.67 23.7239 113.078 24.0069 112.661 24.5739C112.298 25.0739 112.116 25.7059 112.116 26.4689V31.5039H109.937L109.958 24.9299C109.958 23.8239 109.93 22.8169 109.876 21.9089H111.774L111.854 23.7449H111.914C112.144 23.1139 112.507 22.6059 113.004 22.2249C113.49 21.8819 114.014 21.7109 114.579 21.7109C114.781 21.7109 114.963 21.7249 115.124 21.7499V23.7829Z" fill="white"/>
<path d="M124.87 26.2516C124.87 26.6336 124.844 26.9556 124.79 27.2186H118.252C118.278 28.1666 118.593 28.8916 119.201 29.3916C119.752 29.8386 120.464 30.0626 121.339 30.0626C122.307 30.0626 123.19 29.9116 123.985 29.6086L124.326 31.0886C123.398 31.4846 122.302 31.6816 121.038 31.6816C119.516 31.6816 118.323 31.2436 117.454 30.3686C116.587 29.4936 116.152 28.3186 116.152 26.8446C116.152 25.3976 116.556 24.1926 117.365 23.2316C118.211 22.2056 119.355 21.6926 120.794 21.6926C122.208 21.6926 123.278 22.2056 124.005 23.2316C124.581 24.0466 124.87 25.0546 124.87 26.2516ZM122.792 25.6986C122.806 25.0666 122.664 24.5206 122.368 24.0596C121.991 23.4666 121.412 23.1706 120.632 23.1706C119.919 23.1706 119.34 23.4596 118.897 24.0396C118.534 24.5006 118.318 25.0536 118.252 25.6976H122.792V25.6986Z" fill="white"/>
</svg>
