<svg width="141" height="40" viewBox="0 0 141 40" fill="none" xmlns="http://www.w3.org/2000/svg">
<path d="M135.778 0.801244C138.196 0.801244 140.163 2.685 140.163 5V35C140.163 37.315 138.196 39.1988 135.778 39.1988H5.22222C2.80433 39.1988 0.836861 37.315 0.836861 35V5C0.836861 2.685 2.80433 0.801244 5.22222 0.801244H135.778ZM135.778 -4.76837e-06H5.22222C2.35131 -4.76837e-06 0 2.25125 0 5V35C0 37.7487 2.35131 40 5.22222 40H135.778C138.649 40 141 37.7487 141 35V5C141 2.25125 138.649 -4.76837e-06 135.778 -4.76837e-06Z" fill="#A6A6A6"/>
<path d="M10.1162 7.53869C9.80939 7.84619 9.63184 8.32494 9.63184 8.94494V31.0599C9.63184 31.6799 9.80939 32.1587 10.1162 32.4662L10.1919 32.5337L23.1352 20.1462V19.8537L10.1919 7.46619L10.1162 7.53869Z" fill="white"/>
<path d="M29.0118 24.2773L24.7021 20.1461V19.8536L29.017 15.7223L29.1136 15.7761L34.2236 18.5598C35.6819 19.3498 35.6819 20.6498 34.2236 21.4448L29.1136 24.2236L29.0118 24.2773V24.2773Z" fill="white"/>
<path d="M28.3289 24.993L23.9174 20.7693L10.8984 33.2355C11.3828 33.723 12.1727 33.7818 13.0709 33.2943L28.3289 24.993" fill="white"/>
<path d="M28.3289 15.007L13.0709 6.70572C12.1727 6.22322 11.3828 6.28196 10.8984 6.76946L23.9174 19.2307L28.3289 15.007Z" fill="white"/>
<path d="M49.525 10.2435C49.525 11.0785 49.2639 11.7472 48.7495 12.246C48.1581 12.8372 47.3878 13.1347 46.4439 13.1347C45.5417 13.1347 44.7715 12.8322 44.1396 12.236C43.5064 11.631 43.1904 10.8885 43.1904 9.99974C43.1904 9.111 43.5064 8.3685 44.1396 7.7685C44.7715 7.16725 45.5417 6.86475 46.4439 6.86475C46.893 6.86475 47.3212 6.9535 47.7298 7.1185C48.1372 7.28475 48.4688 7.50975 48.709 7.78725L48.1633 8.31475C47.7442 7.841 47.1737 7.60725 46.4439 7.60725C45.7859 7.60725 45.2153 7.82725 44.731 8.271C44.2518 8.71599 44.0116 9.29225 44.0116 9.99974C44.0116 10.7072 44.2518 11.2885 44.731 11.7335C45.2153 12.1722 45.7859 12.3972 46.4439 12.3972C47.1423 12.3972 47.7298 12.1722 48.1933 11.7285C48.4988 11.4347 48.6725 11.0297 48.7182 10.5122H46.4439V9.78974H49.478C49.5145 9.94599 49.525 10.0972 49.525 10.2435V10.2435Z" fill="white" stroke="white" stroke-width="0.212667" stroke-miterlimit="10"/>
<path d="M54.3395 7.73869H51.4895V9.63869H54.0588V10.3612H51.4895V12.2612H54.3395V12.9974H50.6826V7.00244H54.3395V7.73869Z" fill="white" stroke="white" stroke-width="0.212667" stroke-miterlimit="10"/>
<path d="M57.7366 12.9974H56.9298V7.73869H55.1816V7.00244H59.4861V7.73869H57.7366V12.9974V12.9974Z" fill="white" stroke="white" stroke-width="0.212667" stroke-miterlimit="10"/>
<path d="M62.6006 12.9974V7.00244H63.4061V12.9974H62.6006Z" fill="white" stroke="white" stroke-width="0.212667" stroke-miterlimit="10"/>
<path d="M66.9768 12.9974H66.1765V7.73869H64.4219V7.00244H68.7315V7.73869H66.9768V12.9974Z" fill="white" stroke="white" stroke-width="0.212667" stroke-miterlimit="10"/>
<path d="M76.8809 12.226C76.2634 12.8322 75.4983 13.1347 74.5857 13.1347C73.6679 13.1347 72.9029 12.8322 72.2853 12.226C71.6691 11.621 71.3623 10.8785 71.3623 9.99974C71.3623 9.121 71.6691 8.3785 72.2853 7.7735C72.9029 7.16725 73.6679 6.86475 74.5857 6.86475C75.4931 6.86475 76.2582 7.16725 76.8757 7.7785C77.4971 8.3885 77.8039 9.126 77.8039 9.99974C77.8039 10.8785 77.4971 11.621 76.8809 12.226ZM72.882 11.7235C73.3468 12.1722 73.9121 12.3972 74.5857 12.3972C75.2542 12.3972 75.8247 12.1722 76.2843 11.7235C76.7477 11.2747 76.9827 10.6985 76.9827 9.99974C76.9827 9.301 76.7477 8.72475 76.2843 8.276C75.8247 7.82725 75.2542 7.60225 74.5857 7.60225C73.9121 7.60225 73.3468 7.82725 72.882 8.276C72.4185 8.72475 72.1835 9.301 72.1835 9.99974C72.1835 10.6985 72.4185 11.2747 72.882 11.7235V11.7235Z" fill="white" stroke="white" stroke-width="0.212667" stroke-miterlimit="10"/>
<path d="M78.9355 12.9974V7.00244H79.9147L82.9593 11.6649H82.9945L82.9593 10.5124V7.00244H83.7648V12.9974H82.924L79.7359 8.10494H79.7006L79.7359 9.26244V12.9974H78.9355V12.9974Z" fill="white" stroke="white" stroke-width="0.212667" stroke-miterlimit="10"/>
<path d="M71.1635 21.7524C68.7103 21.7524 66.7063 23.5399 66.7063 26.0061C66.7063 28.4524 68.7103 30.2586 71.1635 30.2586C73.6218 30.2586 75.6259 28.4524 75.6259 26.0061C75.6259 23.5399 73.6218 21.7524 71.1635 21.7524ZM71.1635 28.5836C69.8174 28.5836 68.6594 27.5199 68.6594 26.0061C68.6594 24.4724 69.8174 23.4274 71.1635 23.4274C72.5095 23.4274 73.6728 24.4724 73.6728 26.0061C73.6728 27.5199 72.5095 28.5836 71.1635 28.5836V28.5836ZM61.4384 21.7524C58.98 21.7524 56.9812 23.5399 56.9812 26.0061C56.9812 28.4524 58.98 30.2586 61.4384 30.2586C63.8954 30.2586 65.8956 28.4524 65.8956 26.0061C65.8956 23.5399 63.8954 21.7524 61.4384 21.7524ZM61.4384 28.5836C60.0911 28.5836 58.9291 27.5199 58.9291 26.0061C58.9291 24.4724 60.0911 23.4274 61.4384 23.4274C62.7844 23.4274 63.9424 24.4724 63.9424 26.0061C63.9424 27.5199 62.7844 28.5836 61.4384 28.5836ZM49.8659 23.0561V24.8636H54.374C54.2422 25.8736 53.8897 26.6161 53.3492 27.1336C52.6912 27.7586 51.6663 28.4524 49.8659 28.4524C47.0916 28.4524 44.9192 26.3086 44.9192 23.6524C44.9192 20.9961 47.0916 18.8524 49.8659 18.8524C51.366 18.8524 52.4575 19.4136 53.263 20.1411L54.5934 18.8674C53.4667 17.8374 51.9679 17.0461 49.8659 17.0461C46.0616 17.0461 42.8643 20.0099 42.8643 23.6524C42.8643 27.2949 46.0616 30.2586 49.8659 30.2586C51.9222 30.2586 53.4667 29.6136 54.6808 28.4036C55.925 27.2124 56.3128 25.5374 56.3128 24.1849C56.3128 23.7649 56.2762 23.3786 56.2109 23.0561H49.8659ZM97.1871 24.4574C96.8202 23.5061 95.6883 21.7524 93.3827 21.7524C91.098 21.7524 89.1958 23.4761 89.1958 26.0061C89.1958 28.3886 91.0784 30.2586 93.6021 30.2586C95.6426 30.2586 96.8202 29.0674 97.3046 28.3736L95.7902 27.4074C95.2849 28.1149 94.5969 28.5836 93.6021 28.5836C92.6137 28.5836 91.9048 28.1499 91.4505 27.2949L97.3921 24.9411L97.1871 24.4574V24.4574ZM91.1293 25.8736C91.0784 24.2336 92.4597 23.3936 93.4493 23.3936C94.2248 23.3936 94.8828 23.7649 95.1021 24.2961L91.1293 25.8736V25.8736ZM86.3001 29.9999H88.2532V17.4999H86.3001V29.9999ZM83.1015 22.6999H83.0362C82.5975 22.2024 81.7607 21.7524 80.7006 21.7524C78.4759 21.7524 76.4418 23.6224 76.4418 26.0199C76.4418 28.4036 78.4759 30.2586 80.7006 30.2586C81.7607 30.2586 82.5975 29.8049 83.0362 29.2924H83.1015V29.9024C83.1015 31.5286 82.1941 32.4024 80.7306 32.4024C79.5373 32.4024 78.7971 31.5774 78.4916 30.8836L76.793 31.5624C77.2826 32.6899 78.579 34.0774 80.7306 34.0774C83.0205 34.0774 84.9527 32.7874 84.9527 29.6486V22.0111H83.1015V22.6999V22.6999ZM80.8677 28.5836C79.5216 28.5836 78.3949 27.5049 78.3949 26.0199C78.3949 24.5211 79.5216 23.4274 80.8677 23.4274C82.1941 23.4274 83.2399 24.5211 83.2399 26.0199C83.2399 27.5049 82.1941 28.5836 80.8677 28.5836V28.5836ZM106.331 17.4999H101.66V29.9999H103.608V25.2636H106.331C108.495 25.2636 110.616 23.7649 110.616 21.3811C110.616 18.9986 108.489 17.4999 106.331 17.4999V17.4999ZM106.382 23.5249H103.608V19.2386H106.382C107.837 19.2386 108.667 20.3949 108.667 21.3811C108.667 22.3486 107.837 23.5249 106.382 23.5249ZM118.423 21.7286C117.016 21.7286 115.552 22.3236 114.95 23.6424L116.679 24.3361C117.051 23.6424 117.735 23.4174 118.459 23.4174C119.469 23.4174 120.494 23.9986 120.51 25.0249V25.1561C120.157 24.9611 119.402 24.6724 118.474 24.6724C116.612 24.6724 114.715 25.6536 114.715 27.4849C114.715 29.1599 116.24 30.2386 117.955 30.2386C119.265 30.2386 119.989 29.6724 120.443 29.0136H120.51V29.9799H122.391V25.1849C122.391 22.9686 120.662 21.7286 118.423 21.7286ZM118.188 28.5786C117.551 28.5786 116.663 28.2761 116.663 27.5199C116.663 26.5524 117.77 26.1811 118.729 26.1811C119.587 26.1811 119.989 26.3624 120.51 26.6011C120.357 27.7586 119.316 28.5786 118.188 28.5786V28.5786ZM129.245 22.0024L127.006 27.4211H126.939L124.625 22.0024H122.524L126.002 29.5749L124.018 33.7886H126.053L131.412 22.0024H129.245V22.0024ZM111.687 29.9999H113.64V17.4999H111.687V29.9999Z" fill="white"/>
</svg>
